<?xml version="1.0" encoding="utf-8"?>
<!-- Generator: Adobe Illustrator 22.0.1, SVG Export Plug-In . SVG Version: 6.00 Build 0)  -->
<svg version="1.1" id="Layer_1" xmlns="http://www.w3.org/2000/svg" xmlns:xlink="http://www.w3.org/1999/xlink" x="0px" y="0px"
	 viewBox="0 0 398 60" style="enable-background:new 0 0 398 60;" xml:space="preserve">
<style type="text/css">
	.st0{fill:#FFFFFF;}
	.st1{fill:none;stroke:#000000;stroke-width:12.72;}
	.st2{fill:#E6E6E6;}
	.st3{fill:none;stroke:#010202;stroke-width:10.6;stroke-linecap:round;}
	.st4{fill:none;stroke:#010202;stroke-width:8.48;stroke-linecap:round;}
</style>
<symbol  id="panda" viewBox="-130.5 -107.8 261 215.6">
	<g id="Page-1_3_">
		<path id="Fill-1_2_" d="M83.5,27.7H94c20.1,0,36.5,16.4,36.5,36.6c0,20.2-16.4,36.6-36.5,36.6S57.5,84.4,57.5,64.3V54.2
			c-0.1-14.6,11.8-26.5,26.4-26.5"/>
		<path id="Fill-3_2_" d="M-83.5,27.7H-94c-20.1,0-36.5,16.4-36.5,36.6c0,20.2,16.4,36.6,36.5,36.6s36.5-16.4,36.5-36.6V54.2
			c0.1-14.6-11.8-26.5-26.4-26.5"/>
		<path id="Fill-5_2_" class="st0" d="M54.7-89.9L54.7-89.9C21.5-105-17-105.3-50.4-90.7l-2.9,1.3C-87-74.8-108.5-43.2-108.5-8.6
			v8.5c0,56,48.6,101.5,108.5,101.5c59.9,0,108.5-45.4,108.5-101.5v-9.5C108.5-43.8,87.6-75,54.7-89.9"/>
		<path id="Stroke-7_1_" class="st1" d="M54.2-89.9L54.2-89.9C21-105-17.5-105.3-50.9-90.7l-2.9,1.3C-87.5-74.8-109-43.2-109-8.6
			v8.5c0,56,48.6,101.5,108.5,101.5C59.4,101.4,108,56,108-0.1v-9.5C108-43.8,87.1-75,54.2-89.9L54.2-89.9z"/>
		<path id="Fill-9_2_" d="M-76.8,32.5C-66.2,49.7-46,55-31.7,44.5c14.3-10.5,17.2-32.9,6.6-50C-35.8-22.6-56-28-70.2-17.5
			C-84.5-7-87.4,15.4-76.8,32.5"/>
		<path id="Fill-11_1_" class="st2" d="M51.5-76.6L51.5-76.6c-31.6-14.4-68-14.6-99.7-0.8l-2.9,1.3c-31.2,13.5-51.3,42.9-51.3,75
			v-8.4c0-32.1,20.1-61.5,51.3-75l2.9-1.3c31.7-13.9,68.1-13.6,99.7,0.8l0,0c30.4,13.7,50,43,50,74.5v8.4
			C101.5-33.6,81.9-62.8,51.5-76.6"/>
		<path id="Fill-13_1_" d="M14.4-36l-9.7-6.1c-3-1.8-6.7-1.8-9.5,0l-9.7,6.1c-3.8,2.5-5.4,7.3-3.3,11.8c1.5,3,4.7,4.9,8.1,4.9l19,0
			c2.1,0,4.2-0.7,5.9-2C20.5-25.7,19.2-33.1,14.4-36"/>
		<path id="Stroke-15_1_" class="st3" d="M26.8-49.7c-14.8-14.9-38.9-14.9-53.8,0"/>
		<path id="Stroke-17_1_" class="st4" d="M-0.5-61.3v22"/>
		<path id="Fill-19_1_" class="st0" d="M-55.6,28.9c3.8,6.1,10.9,8,16,4.3c5.1-3.7,6.1-11.7,2.3-17.8c-3.8-6.1-10.9-8-16-4.3
			C-58.3,14.9-59.4,22.8-55.6,28.9"/>
		<path id="Fill-21_1_" d="M76.7,32.5C66,49.7,45.8,55,31.6,44.5C17.3,34,14.4,11.7,25-5.5c10.6-17.1,30.8-22.5,45.1-12
			C84.4-7,87.3,15.4,76.7,32.5"/>
		<path id="Fill-23_1_" class="st0" d="M55.5,28.9c-3.8,6.1-10.9,8-16,4.3c-5.1-3.7-6.1-11.7-2.3-17.8c3.8-6.1,10.9-8,16-4.3
			C58.2,14.9,59.2,22.8,55.5,28.9"/>
	</g>
</symbol>
<title>Launchaco</title>
<desc>Created with Sketch.</desc>
<g id="Group" transform="translate(317.000000, 410.000000)">
	<g id="Page-1" transform="translate(316.000000, 38.000000)">
		<path id="Fill-1" d="M-443.7-416.5h-5.8v-11.1h5.9c3.4,0,5.5,2,5.5,5.5S-440.3-416.5-443.7-416.5 M-443.1-431.1h-9.1
			c-0.9,0-1.3,0.4-1.3,1.3v25.9c0,0.9,0.4,1.3,1.3,1.3h1.3c0.9,0,1.3-0.4,1.3-1.3v-9.2h6.5c5.2,0,8.9-3.6,8.9-9.1
			C-434.1-427.6-437.8-431.1-443.1-431.1"/>
		<path id="Fill-3" d="M-419.7-411.7c0,3-2.1,6.5-5.5,6.5c-2.5,0-3.8-1.7-3.8-3.3c0-3.9,5.4-4.1,8.3-4.1h1.1V-411.7z M-423.8-423.5
			c-3.1,0-5.4,1.1-6.6,1.7c-0.7,0.4-0.8,1.1-0.4,1.8l0.3,0.6c0.4,0.7,1.1,0.9,1.8,0.5c0.9-0.5,2.6-1.3,4.6-1.3
			c2.5,0,4.5,1.1,4.5,4.5v0.5h-1.1c-4.2,0-12.2,0.7-12.2,7c0,3.8,3.3,6.1,6.9,6.1c4.8,0,6.7-4.3,6.7-4.3h0.1c0,0-0.1,0.5-0.1,1.3
			v1.2c0,0.9,0.5,1.3,1.3,1.3h1c0.8,0,1.3-0.4,1.3-1.3v-11.6C-415.8-420.6-418.7-423.5-423.8-423.5L-423.8-423.5z"/>
		<path id="Fill-5" d="M-398.9-423.5c-4.5,0-7,3-7.8,4.8h-0.1c0,0,0.1-0.6,0.1-1.2v-1.8c0-0.9-0.4-1.3-1.3-1.3h-1.1
			c-0.8,0-1.3,0.4-1.3,1.3v17.8c0,0.9,0.5,1.3,1.3,1.3h1.3c0.9,0,1.3-0.4,1.3-1.3v-8.5c0-4.3,2.9-7.6,6.8-7.6c3.3,0,3.8,2.3,3.8,5.1
			v10.9c0,0.9,0.5,1.3,1.3,1.3h1.3c0.9,0,1.3-0.4,1.3-1.3v-11.8C-391.9-420.8-394.1-423.5-398.9-423.5"/>
		<path id="Fill-7" d="M-378-405.4c-3.4,0-5.8-2.9-5.8-7.3c0-4.7,2.7-7.3,5.9-7.3c3.9,0,5.8,3.6,5.8,7.2
			C-372-407.6-374.9-405.4-378-405.4 M-369.6-431.1h-1.3c-0.9,0-1.3,0.4-1.3,1.3v8.4c0,0.8,0.1,1.4,0.1,1.4h-0.1
			c0,0-1.7-3.5-6.4-3.5c-5.4,0-9.3,4.2-9.3,10.7c0,6.4,3.5,10.7,9,10.7c5,0,6.8-3.9,6.8-3.9h0.1c0,0-0.1,0.4-0.1,1v1.2
			c0,0.8,0.4,1.3,1.3,1.3h1.1c0.9,0,1.3-0.4,1.3-1.3v-25.9C-368.2-430.6-368.7-431.1-369.6-431.1"/>
		<path id="Fill-9" d="M-350.9-411.7c0,3-2.1,6.5-5.5,6.5c-2.5,0-3.8-1.7-3.8-3.3c0-3.9,5.4-4.1,8.3-4.1h1.1V-411.7z M-355.1-423.5
			c-3.1,0-5.4,1.1-6.6,1.7c-0.7,0.4-0.8,1.1-0.4,1.8l0.3,0.6c0.4,0.7,1.1,0.9,1.8,0.5c0.9-0.5,2.6-1.3,4.6-1.3
			c2.5,0,4.5,1.1,4.5,4.5v0.5h-1.1c-4.2,0-12.2,0.7-12.2,7c0,3.8,3.3,6.1,6.9,6.1c4.8,0,6.7-4.3,6.7-4.3h0.1c0,0-0.1,0.5-0.1,1.3
			v1.2c0,0.9,0.5,1.3,1.3,1.3h1c0.8,0,1.3-0.4,1.3-1.3v-11.6C-347-420.6-350-423.5-355.1-423.5L-355.1-423.5z"/>
	</g>
	
		<use xlink:href="#panda"  width="261" height="215.6" x="-130.5" y="-107.8" transform="matrix(0.2177 0 0 -0.2177 -177.9149 -379.3255)" style="overflow:visible;"/>
</g>
</svg>
