<?xml version="1.0" encoding="utf-8"?>
<!-- Generator: Adobe Illustrator 22.0.1, SVG Export Plug-In . SVG Version: 6.00 Build 0)  -->
<svg version="1.1" id="Layer_1" xmlns="http://www.w3.org/2000/svg" xmlns:xlink="http://www.w3.org/1999/xlink" x="0px" y="0px"
	 viewBox="0 0 398 60" style="enable-background:new 0 0 398 60;" xml:space="preserve">
<style type="text/css">
	.st0{fill:#FFFFFF;}
</style>
<title>Launchaco</title>
<desc>Created with Sketch.</desc>
<g>
	<circle cx="110.1" cy="30.5" r="27.1"/>
</g>
<path class="st0" d="M113.7,17L113.7,17h-13.1v27.1h5.4v-8.1h7.7v0c5.2,0,9.5-4.2,9.5-9.5C123.2,21.2,118.9,17,113.7,17z
	 M113.7,30.5L113.7,30.5l-7.7,0v-8.1h7.7v0c2.2,0,4.1,1.8,4.1,4.1C117.7,28.7,115.9,30.5,113.7,30.5z"/>
<g>
	<path d="M155.2,39.6V21.5h8.3c3.9,0,6,2.6,6,5.7c0,3.1-2.1,5.7-6,5.7H159v6.6H155.2z M165.6,27.2c0-1.5-1.1-2.4-2.6-2.4h-4v4.8h4
		C164.5,29.6,165.6,28.7,165.6,27.2z"/>
	<path d="M171.8,39.6V26.4h3.4v1.7c0.9-1.1,2.5-2,4.1-2v3.3c-0.2-0.1-0.5-0.1-0.9-0.1c-1.1,0-2.6,0.6-3.2,1.5v8.8H171.8z"/>
	<path d="M180.5,32.8c0-3.6,2.6-6.7,6.8-6.7c4.3,0,6.8,3.1,6.8,6.7s-2.6,6.8-6.8,6.8C183.1,39.6,180.5,36.4,180.5,32.8z M190.6,32.8
		c0-2-1.2-3.7-3.3-3.7c-2.1,0-3.3,1.7-3.3,3.7c0,2,1.2,3.7,3.3,3.7C189.4,36.6,190.6,34.8,190.6,32.8z"/>
	<path d="M205.5,39.6v-2c-1,1.3-2.4,2-4,2c-3.2,0-5.7-2.4-5.7-6.8c0-4.2,2.4-6.7,5.7-6.7c1.5,0,3,0.6,4,2v-6.5h3.4v18.1H205.5z
		 M205.5,35.1v-4.5c-0.6-0.9-1.8-1.5-2.9-1.5c-1.9,0-3.3,1.5-3.3,3.7c0,2.2,1.3,3.7,3.3,3.7C203.7,36.6,204.9,35.9,205.5,35.1z"/>
	<path d="M220.9,39.6v-1.9c-0.9,1-2.4,1.9-4.5,1.9c-2.8,0-4.1-1.5-4.1-4v-9.1h3.4v7.8c0,1.8,0.9,2.4,2.4,2.4c1.3,0,2.3-0.7,2.9-1.5
		v-8.7h3.4v13.2H220.9z"/>
	<path d="M226.8,32.8c0-3.9,2.9-6.7,6.8-6.7c2.6,0,4.2,1.1,5.1,2.3l-2.2,2.1c-0.6-0.9-1.5-1.4-2.7-1.4c-2,0-3.5,1.5-3.5,3.7
		s1.4,3.7,3.5,3.7c1.2,0,2.1-0.5,2.7-1.4l2.2,2.1c-0.9,1.2-2.4,2.3-5.1,2.3C229.7,39.6,226.8,36.8,226.8,32.8z"/>
	<path d="M241.6,36v-6.7h-2.1v-3h2.1v-3.5h3.4v3.5h2.6v3H245v5.8c0,0.8,0.4,1.4,1.2,1.4c0.5,0,1-0.2,1.2-0.4l0.7,2.6
		c-0.5,0.5-1.4,0.8-2.8,0.8C242.8,39.6,241.6,38.3,241.6,36z"/>
	<path d="M269.2,39.6v-7.8h-8.4v7.8h-3.8V21.5h3.8v7h8.4v-7h3.8v18.1H269.2z"/>
	<path d="M285.1,39.6v-1.9c-0.9,1-2.4,1.9-4.5,1.9c-2.8,0-4.1-1.5-4.1-4v-9.1h3.4v7.8c0,1.8,0.9,2.4,2.4,2.4c1.3,0,2.3-0.7,2.9-1.5
		v-8.7h3.4v13.2H285.1z"/>
	<path d="M300.5,39.6v-8.1c0-1.8-0.9-2.4-2.4-2.4c-1.3,0-2.3,0.7-2.9,1.5v9h-3.4V26.4h3.4V28c0.8-1,2.4-2,4.5-2
		c2.8,0,4.2,1.6,4.2,4.1v9.4H300.5z"/>
	<path d="M307.9,36v-6.7h-2.1v-3h2.1v-3.5h3.4v3.5h2.6v3h-2.6v5.8c0,0.8,0.4,1.4,1.2,1.4c0.5,0,1-0.2,1.2-0.4l0.7,2.6
		c-0.5,0.5-1.4,0.8-2.8,0.8C309.2,39.6,307.9,38.3,307.9,36z"/>
</g>
</svg>
